<?xml version="1.0" standalone="no"?>
<!DOCTYPE svg PUBLIC "-//W3C//DTD SVG 20010904//EN"
 "http://www.w3.org/TR/2001/REC-SVG-20010904/DTD/svg10.dtd">
<svg version="1.0" xmlns="http://www.w3.org/2000/svg"
 width="170.000000pt" height="170.000000pt" viewBox="0 0 170.000000 170.000000"
 preserveAspectRatio="xMidYMid meet">

<g transform="translate(0.000000,170.000000) scale(0.100000,-0.100000)"
fill="#000000" stroke="none">
<path d="M480 1452 l0 -138 284 -217 c157 -119 287 -221 290 -226 3 -5 -124
-112 -284 -237 l-290 -227 0 -149 c0 -83 4 -148 8 -146 5 2 201 153 435 337
l427 334 0 87 0 88 -422 309 c-233 170 -429 313 -435 317 -10 6 -13 -23 -13
-132z"/>
<path d="M350 1116 l0 -154 59 -49 c33 -26 60 -52 60 -58 0 -5 -27 -32 -60
-58 l-59 -48 0 -150 c0 -117 3 -149 13 -143 6 4 80 62 162 128 83 67 192 152
243 190 51 38 91 72 90 77 -3 9 -495 419 -503 419 -3 0 -5 -69 -5 -154z"/>
</g>
</svg>
